<?xml version="1.0" encoding="UTF-8"?>
<svg id="Layer_1" data-name="Layer 1" xmlns="http://www.w3.org/2000/svg" viewBox="-6 -52 736 322">
  <defs>
    <style>
      .cls-1 {
        fill: #a9dbd3;
      }

      .cls-2 {
        fill: none;
      }

      .cls-3 {
        fill: #2d2a4b;
      }
    </style>
  </defs>
  <g transform="translate(-105 -68) scale(1.6)">
    <g>
      <path class="cls-1" d="M217.117569,149.868016l-.218401-1.015234c-.077396-.415494-.166072-.838508-.271669-1.270296l-1.876616-8.720356-11.958137-55.614127c-1.99788-9.269961-8.906482-15.497981-17.192544-15.497981-1.262149,0-2.519284.149152-3.745084.446201l-15.05178,3.449915c-1.887269-.766439-3.911783-1.175039-5.993639-1.175039l-20.584177.170459c-.769572.000627-1.538518.074576-2.303076.185499-1.084483-.230621-2.196853-.355958-3.327084-.355958l-1.239274.010027c.000627-.047628.008147-.09463.00846-.142885l.002507-.333398s-.046375-1.31855-.065175-1.966545c-.165445-5.63016-.426147-12.037413-1.420074-16.832826-1.81614-8.747304-9.065661-14.625632-18.041079-14.625632-1.506557,0-3.069515.166699-4.638741.492576-5.371965,1.111744-9.495569,3.582146-12.2555,7.33851-2.09815,2.855188-4.299076,7.699482-2.876496,14.55795.082409.39732.186126.812187.285143,1.223294-.360345-.170459-.724451-.347185-1.074769-.500097-2.442828-1.064115-4.975899-1.60432-7.526517-1.60432-7.452568,0-13.849793,4.474549-17.109822,11.963464-2.190899,5.026034-2.555632,9.816433-1.082916,14.237086,1.119264,3.361552,3.801486,7.956424,10.22378,10.756464.357212.155418.741685.30457,1.118637.454975-.332771.18738-.674316.373506-.988286.562765-4.860588,2.926631-8.060454,7.705749-8.781145,13.111555-.40108,3.01186-.214327,7.708256,2.957965,12.974938,5.172678,8.584365,12.210379,9.866568,15.945436,9.867821h.001253c3.239348,0,6.434514-.921231,9.501209-2.722957l-.095256,20.96207c-.79276.634834-1.550738,1.361165-2.255448,2.222234l-4.401853,5.454688,1.126784,5.571252.19302,5.805633c.117817,3.548305,1.531624,6.985059,3.983226,9.597092,4.756558,5.068648,11.213946,5.072408,15.06682,5.076169,0,0,91.52144.105283,91.531467.105283,4.833014,0,12.893468-.013787,17.703921-6.863481,1.860008-2.645875,2.772465-5.796859,2.669689-8.951604l.01128-6.535097c.005013-3.745084-1.435114-7.402433-4.019573-10.144817-.621047-.658649-1.270609-1.227681-1.936464-1.725271Z"/>
      <g>
        <g>
          <path class="cls-3" d="M108.31944,56.012012c-.511197-2.463964.178638-3.932173,3.833758-4.690498,3.018716-.626291,4.951346.297837,5.478985,2.841051.97257,4.687776,1.06433,13.122758,1.181035,16.081875-.015081,2.323914-4.226154,3.197582-5.164478,1.071471-1.07011-2.761314-4.340288-10.536872-5.329299-15.303898Z"/>
          <path class="cls-3" d="M83.599902,81.703584c-2.306846-1.005437-3.107199-2.416445-1.615703-5.838491,1.231808-2.826223,3.102276-3.870455,5.483319-2.832679,4.388853,1.912879,11.328429,6.708671,13.811737,8.322107,1.888609,1.354236.170252,5.296784-2.107401,4.835158-2.872351-.720826-11.108902-2.540877-15.571952-4.486094Z"/>
          <path class="cls-3" d="M90.252921,116.702827c-2.15556,1.298461-3.769382,1.133869-5.695559-2.063756-1.590805-2.640877-1.358971-4.770507.86592-6.110731,4.101027-2.470366,12.029485-5.3508,14.782913-6.441042,2.19773-.755502,4.416884,2.928489,2.721579,4.518063-2.251002,1.924314-8.504495,7.585336-12.674853,10.097466Z"/>
        </g>
        <path class="cls-3" d="M138.427689,102.957631l.065961-14.489861c.005497-1.248218.251705-3.297127,1.768576-3.273308l20.478787-.169025c1.374643-.068709,2.408717,1.910117,2.396349,4.585654l-.070541,13.352953c-.428975-.175896-.932613-.29545-1.522139-.286288l-8.822724.090238c-.652738-.054051-1.318759-.090696-2.010432-.090696-.872607,0-1.712234.050845-2.523919.13696l-9.074658.092528c-.265676-.000916-.485545.020155-.68526.050845ZM162.214368,113.389525l-9.074658.092986c-.811685.086116-1.651083.13696-2.523919.13696-.691444,0-1.357465-.037103-2.010203-.090696l-8.822724.090238c-.536161.008245-.995826-.094819-1.402584-.241857l-.187118,41.054683c-.059548,2.585758.737937,4.649783,2.443758,4.497706l20.383739.007329c1.231728.019239,1.853317-1.131412,1.768118-3.273308l.223534-42.345959c-.225366.043058-.479132.073748-.797943.071916ZM208.519852,161.713632l-.010643,6.983086c.210713.584429-2.640558.857564-6.212831.837198l-91.123497-.102971c-1.724236-.001903-4.554876-.086204-4.522052-.605823l-.233186-7.015744c-.095041-.470933,2.638575-.825159,6.334648-.820883l91.245455.119331c2.958991-.029156,4.548757.183831,4.522105.605806ZM136.922957,89.611091l-.348127,66.052477c.08497,2.141896-.536848,3.292546-1.768576,3.273308l-20.38351-.007329c-1.70605.152076-2.503077-1.911949-2.443758-4.497706l.300717-65.964071c.005497-1.248218.251476-3.297127,1.768118-3.273308l20.479016-.169025c1.374643-.068709,2.408488,1.910117,2.39612,4.585654ZM134.975966,97.433866c-.483026-3.530739-4.638102-5.941975-10.489381-5.941975-6.05649,0-10.360436,2.608203-10.557403,6.370262l-.006184.35683c.001374.081535.003435.16307.008474.243231.056342.640828.915207,1.107593,2.054406,1.090645l17.448481-.168567c1.307537.005955,1.519619-.515777,1.524429-.833672l.017177-1.116754ZM175.815132,144.075527l-11.558954-53.572132c-.263385-1.219818-.464245-3.273766,1.021935-3.577461l19.962094-4.575119c1.327462-.363243,2.763485,1.346701,3.327359,3.962232l11.257779,52.35781c-.404926-.039851-.842146-.034355-1.324027.079703l-8.900823,2.058529c-.555629.082451-1.10347.147496-1.678109.273921-.851765.187805-1.660244.41821-2.43391.677015l-8.842878,2.045245c-.344233.074206-.608306.168109-.830466.270256ZM169.309513,95.879663c.635789,1.094767,4.048348,1.185921,8.603999.180934,4.715286-1.0398,7.874536-2.648512,7.75086-3.937497l-.021071-.120012c-.007329-.027026-.014658-.054051-.024735-.079703-.090696-.204295-.793821-.212541-1.679712-.010993l-13.572364,3.052064c-1.018729.222618-1.145383.432868-1.125686.540055l.068709.375152ZM170.191281,99.878083c.636018,1.094767,4.048577,1.185921,8.603999.181392,4.715286-1.040258,7.874536-2.649428,7.75086-3.938413l-.021071-.120012c-.007329-.026568-.014658-.053593-.024735-.079703-.090696-.203837-.793821-.212083-1.679712-.010993l-13.572364,3.052522c-1.0185.222618-1.145383.432868-1.125686.539597l.068709.37561ZM202.026789,148.90945c-.164902.058174-.350417.111309-.564332.157115l-8.843336,2.045703c-.773666.258347-1.581916.488752-2.433681.676557-.57418.126883-1.122022.19147-1.677421.273921l-8.90151,2.058987c-.601435.141999-1.145154.131922-1.615354.038477l.177957.824511c.498829,2.538119,1.721853,4.381817,3.354843,3.865582l19.906897-4.382275c1.206992-.246437,1.566342-1.504274,1.021935-3.577461l-.425997-1.981116Z"/>
      </g>
    </g>
    <rect class="cls-2" x="38.788757" y="4.248462" width="212.171202" height="212.171202"/>
  </g>
  <g>
    <path class="cls-3" d="M282.304876,82.923031c0-8.078125,6.979492-13.570312,17.512695-13.570312,2.390625,0,4.716797.322266,6.655273.839844,2.908203.582031,3.490234-1.163086,3.490234-4.005859,0-3.102539,2.519531-4.330078,4.716797-4.330078,2.584961,0,4.717773,1.938477,4.717773,4.200195,0,3.618164-2.261719,6.461914-6.268555,7.560547,2.584961,2.326172,4.135742,5.557617,4.135742,9.305664,0,5.363281-2.972656,9.499023-8.078125,11.760742,4.976562,1.227539,8.271484,3.683594,8.271484,8.077148,0,7.044922-7.237305,11.115234-17.640625,11.115234-6.915039,0-17.189453-3.037109-17.253906-9.693359,0-3.294922,2.326172-4.910156,5.040039-4.910156s5.816406,1.550781,7.172852,4.716797c1.227539,2.77832,3.8125,4.845703,6.65625,4.845703,2.390625,0,4.523438-1.615234,4.523438-4.716797,0-3.876953-2.779297-7.367188-7.431641-7.625-9.175781,0-16.219727-5.427734-16.219727-13.570312ZM304.922063,85.636898c0-6.720703-2.455078-11.178711-6.268555-11.178711-2.455078,0-4.070312,2.261719-4.070312,5.685547,0,6.720703,2.455078,11.179688,6.203125,11.179688,2.520508,0,4.135742-2.261719,4.135742-5.686523Z"/>
    <path class="cls-3" d="M321.014837,93.456234c0-6.397461,6.267578-10.275391,14.668945-10.920898,4.005859-.323242,4.911133-.776367,4.652344-2.84375l-.128906-1.098633c-.323242-2.519531-1.098633-4.134766-3.748047-4.134766-1.874023,0-3.683594,1.097656-4.330078,3.618164-.646484,2.649414-2.261719,3.942383-5.169922,3.942383-1.679688,0-3.553711-1.228516-3.553711-3.554688,0-5.427734,7.301758-9.175781,15.896484-9.175781,9.628906,0,12.083984,4.393555,12.989258,11.308594l1.486328,11.114258c.323242,2.391602.904297,2.77832,1.874023,2.77832,1.227539,0,1.550781-.581055,2.261719-.581055.645508,0,1.486328.323242,1.486328,1.80957,0,3.101562-3.360352,6.785156-8.013672,6.785156-4.135742,0-6.074219-1.745117-7.108398-4.394531-.128906-.387695-.387695-.710938-.645508-.710938-.905273,0-1.80957,5.363281-11.631836,5.363281-8.335938,0-10.985352-4.523438-10.985352-9.304688ZM341.693548,89.126156l-.06543-.452148c-.257812-1.938477-1.098633-2.326172-3.553711-2.326172-3.683594,0-4.975586,2.196289-4.975586,5.104492,0,3.296875,1.80957,4.847656,4.393555,4.847656,2.714844,0,4.84668-2.650391,4.201172-7.173828Z"/>
    <path class="cls-3" d="M381.04804,97.591976c.839844.516602,1.550781,1.03418,1.550781,2.196289,0,1.746094-1.03418,2.650391-8.141602,2.650391h-4.006836c-6.849609,0-8.271484-.904297-8.271484-2.650391,0-1.097656.581055-1.615234,1.550781-2.196289,2.584961-1.551758,2.649414-3.553711,2.649414-5.945312v-10.920898c0-1.874023-.323242-2.972656-1.679688-3.619141-1.357422-.516602-2.779297-.646484-2.779297-2.00293-.064453-1.486328,1.357422-2.00293,3.166992-2.713867,3.166016-1.228516,7.430664-2.714844,10.145508-2.714844,2.196289,0,3.101562.582031,3.101562,2.585938v2.261719c0,.96875.128906,1.291992.387695,1.291992.452148,0,2.520508-6.526367,10.791992-6.526367,3.941406,0,6.849609,2.00293,8.529297,5.556641.453125.904297.582031.969727.84082.969727.775391,0,2.00293-6.526367,10.209961-6.526367,5.104492,0,9.62793,2.648438,10.662109,11.695312l1.357422,11.890625c.128906,1.292969.257812,2.972656,2.77832,4.717773.839844.581055,1.550781,1.03418,1.550781,2.196289,0,1.746094-1.03418,2.650391-7.948242,2.650391h-4.006836c-6.267578,0-7.689453-.904297-7.689453-2.650391,0-1.097656.646484-1.615234,1.421875-2.131836,2.131836-1.356445,2.067383-3.618164,1.938477-4.717773l-1.03418-9.886719c-.387695-3.941406-1.874023-5.62207-4.071289-5.62207-2.131836,0-4.716797,2.456055-4.716797,7.948242v4.912109c0,3.876953.128906,5.75,1.421875,7.107422.775391.775391,1.550781,1.228516,1.550781,2.390625,0,1.746094-1.03418,2.650391-6.850586,2.650391h-4.005859c-5.557617,0-6.979492-.904297-6.979492-2.650391,0-1.097656.646484-1.550781,1.486328-2.390625,1.292969-1.357422,1.421875-3.359375,1.421875-7.042969v-6.979492c0-4.84668-1.938477-5.945312-4.071289-5.945312-1.874023,0-4.975586,1.874023-4.975586,8.012695v6.139648c0,2.584961.128906,4.458008,2.713867,6.009766Z"/>
    <path class="cls-3" d="M428.740423,85.960141c0-10.081055,8.142578-16.542969,17.448242-16.542969,9.499023,0,14.151367,6.849609,14.151367,11.4375,0,3.748047-1.615234,4.976562-5.686523,5.557617l-11.178711,1.616211c-1.03418.128906-1.357422.386719-1.357422,1.033203,0,2.261719,2.77832,5.880859,7.819336,5.880859,3.8125,0,6.526367-1.939453,7.689453-3.295898.387695-.387695.710938-.516602,1.098633-.516602,1.745117,0,1.938477,1.615234,1.680664,2.455078-1.163086,4.135742-5.493164,9.175781-14.475586,9.175781-10.662109,0-17.189453-7.753906-17.189453-16.800781ZM449.225774,80.079281c0-2.197266-1.874023-5.621094-4.523438-5.621094s-4.006836,2.001953-4.006836,6.074219c0,2.648438.517578,2.712891,1.874023,2.455078l4.65332-.904297c1.420898-.258789,2.00293-.839844,2.00293-2.003906Z"/>
    <path class="cls-3" d="M505.448431,97.591976c.839844.516602,1.550781,1.03418,1.550781,2.196289,0,1.746094-1.03418,2.650391-8.142578,2.650391h-4.005859c-6.849609,0-8.271484-.904297-8.271484-2.650391,0-1.097656.581055-1.615234,1.550781-2.196289,2.584961-1.551758,2.649414-3.553711,2.649414-5.945312v-24.233398c0-1.873047-.323242-2.972656-1.680664-3.618164-1.356445-.516602-2.77832-.646484-2.77832-2.00293-.064453-1.486328,1.357422-2.003906,3.166016-2.714844,3.166992-1.227539,7.431641-2.713867,10.145508-2.713867,2.197266,0,3.102539.581055,3.102539,2.584961v32.633789c0,2.584961.128906,4.458008,2.713867,6.009766Z"/>
    <path class="cls-3" d="M513.462103,77.106625c-1.357422-.516602-2.779297-.646484-2.779297-2.00293-.064453-1.486328,1.357422-2.00293,3.166992-2.713867,3.166016-1.228516,7.430664-2.714844,10.145508-2.714844,2.196289,0,3.101562.582031,3.101562,2.585938v19.321289c0,2.584961.128906,4.458008,2.713867,6.009766.839844.516602,1.550781,1.03418,1.550781,2.196289,0,1.746094-1.03418,2.650391-8.141602,2.650391h-4.006836c-6.849609,0-8.271484-.904297-8.271484-2.650391,0-1.097656.581055-1.615234,1.550781-2.196289,2.584961-1.551758,2.649414-3.553711,2.649414-5.945312v-10.920898c0-1.874023-.323242-2.972656-1.679688-3.619141ZM513.008978,62.889828c0-3.553711,4.523438-6.396484,10.145508-6.396484,3.360352-.064453,5.105469,1.550781,5.105469,3.683594,0,4.134766-4.458984,6.332031-9.951172,6.332031-3.490234,0-5.299805-1.098633-5.299805-3.619141Z"/>
    <path class="cls-3" d="M537.112493,101.016781c.453125-3.683594.710938-6.65625.710938-12.794922v-20.808594c0-1.873047-.323242-2.972656-1.679688-3.618164-1.357422-.516602-2.779297-.646484-2.779297-2.00293-.064453-1.486328,1.357422-2.003906,3.166992-2.714844,3.166016-1.227539,7.431641-2.713867,10.145508-2.713867,2.197266,0,3.101562.581055,3.101562,2.584961v15.379883c0,1.291992.064453,1.615234.387695,1.615234.646484,0,3.037109-6.655273,10.597656-6.655273,6.462891,0,12.149414,5.298828,12.149414,15.121094,0,10.46875-7.302734,18.351562-17.641602,18.351562-8.142578,0-9.564453-3.8125-10.986328-3.8125-1.550781,0-2.649414,3.8125-5.750977,3.8125-.96875,0-1.615234-.516602-1.421875-1.744141ZM560.506048,88.932797c0-7.043945-2.003906-11.50293-5.880859-11.50293-2.908203,0-4.84668,3.295898-4.84668,9.499023v.646484c0,6.527344,2.390625,10.145508,5.816406,10.145508,2.713867,0,4.911133-2.326172,4.911133-8.788086Z"/>
    <path class="cls-3" d="M596.112493,97.591976c.839844.516602,1.550781,1.03418,1.550781,2.196289,0,1.746094-1.03418,2.650391-8.141602,2.650391h-4.006836c-6.849609,0-8.271484-.904297-8.271484-2.650391,0-1.097656.581055-1.615234,1.550781-2.196289,2.584961-1.551758,2.649414-3.553711,2.649414-5.945312v-10.920898c0-1.874023-.323242-2.972656-1.679688-3.619141-1.357422-.516602-2.779297-.646484-2.779297-2.00293-.064453-1.486328,1.357422-2.00293,3.166992-2.713867,3.166016-1.228516,7.430664-2.714844,10.145508-2.714844,2.196289,0,3.101562.582031,3.101562,2.585938v2.131836c0,.452148,0,1.421875.323242,1.421875.645508,0,2.390625-6.526367,8.982422-6.526367,4.005859,0,6.59082,2.648438,6.59082,7.947266,0,3.037109-2.197266,6.720703-5.879883,6.720703-2.132812,0-4.330078-1.162109-4.330078-4.005859,0-.775391,0-2.197266-1.615234-2.197266-2.197266,0-4.071289,3.748047-4.071289,8.271484v5.557617c0,2.584961.128906,4.458008,2.713867,6.009766Z"/>
    <path class="cls-3" d="M611.753118,93.456234c0-6.397461,6.267578-10.275391,14.668945-10.920898,4.005859-.323242,4.911133-.776367,4.652344-2.84375l-.128906-1.098633c-.323242-2.519531-1.098633-4.134766-3.748047-4.134766-1.874023,0-3.683594,1.097656-4.330078,3.618164-.646484,2.649414-2.261719,3.942383-5.169922,3.942383-1.679688,0-3.553711-1.228516-3.553711-3.554688,0-5.427734,7.301758-9.175781,15.896484-9.175781,9.628906,0,12.083984,4.393555,12.989258,11.308594l1.486328,11.114258c.323242,2.391602.904297,2.77832,1.874023,2.77832,1.227539,0,1.550781-.581055,2.261719-.581055.645508,0,1.486328.323242,1.486328,1.80957,0,3.101562-3.360352,6.785156-8.013672,6.785156-4.135742,0-6.074219-1.745117-7.108398-4.394531-.128906-.387695-.387695-.710938-.645508-.710938-.905273,0-1.80957,5.363281-11.631836,5.363281-8.335938,0-10.985352-4.523438-10.985352-9.304688ZM632.431829,89.126156l-.06543-.452148c-.257812-1.938477-1.098633-2.326172-3.553711-2.326172-3.683594,0-4.975586,2.196289-4.975586,5.104492,0,3.296875,1.80957,4.847656,4.393555,4.847656,2.714844,0,4.84668-2.650391,4.201172-7.173828Z"/>
    <path class="cls-3" d="M671.786321,97.591976c.839844.516602,1.550781,1.03418,1.550781,2.196289,0,1.746094-1.03418,2.650391-8.141602,2.650391h-4.006836c-6.849609,0-8.271484-.904297-8.271484-2.650391,0-1.097656.581055-1.615234,1.550781-2.196289,2.584961-1.551758,2.649414-3.553711,2.649414-5.945312v-10.920898c0-1.874023-.323242-2.972656-1.679688-3.619141-1.357422-.516602-2.779297-.646484-2.779297-2.00293-.064453-1.486328,1.357422-2.00293,3.166992-2.713867,3.166016-1.228516,7.430664-2.714844,10.145508-2.714844,2.196289,0,3.101562.582031,3.101562,2.585938v2.131836c0,.452148,0,1.421875.323242,1.421875.645508,0,2.390625-6.526367,8.982422-6.526367,4.005859,0,6.59082,2.648438,6.59082,7.947266,0,3.037109-2.197266,6.720703-5.879883,6.720703-2.132812,0-4.330078-1.162109-4.330078-4.005859,0-.775391,0-2.197266-1.615234-2.197266-2.197266,0-4.071289,3.748047-4.071289,8.271484v5.557617c0,2.584961.128906,4.458008,2.713867,6.009766Z"/>
    <path class="cls-3" d="M686.521673,106.638851c0-2.713867,2.003906-4.717773,4.458984-4.717773,2.132812,0,3.554688,1.03418,4.394531,2.650391.646484,1.226562,1.03418,3.748047,2.132812,3.748047.904297,0,2.131836-1.035156,3.230469-2.261719.969727-1.099609.839844-1.551758-.839844-5.816406-3.231445-8.142578-6.074219-15.960938-8.078125-21.777344-.645508-1.938477-1.550781-2.972656-2.519531-3.554688-.84082-.516602-1.550781-1.356445-1.550781-2.519531,0-2.068359,1.615234-2.584961,5.686523-2.584961h8.916992c5.041016,0,5.751953.905273,5.751953,2.520508,0,1.162109-.775391,1.744141-1.228516,2.067383-1.808594,1.291992-2.842773,2.132812-2.326172,3.683594,1.03418,3.231445,2.908203,8.530273,4.587891,12.342773.517578,1.163086,1.421875.96875,1.939453,0,2.131836-3.876953,3.166016-6.591797,3.166016-8.400391,0-1.680664-.710938-2.456055-1.421875-3.231445-1.679688-1.80957-2.390625-3.553711-2.390625-5.234375,0-2.584961,2.132812-4.200195,5.104492-4.200195,4.458984,0,5.945312,4.845703,5.945312,8.723633,0,5.62207-5.557617,15.896484-10.40332,22.422852-5.105469,6.915039-10.727539,12.924805-16.608398,12.924805-4.911133,0-7.948242-2.713867-7.948242-6.785156Z"/>
    <path class="cls-3" d="M281.917181,164.348812c0-7.109375,6.59082-10.662109,10.081055-11.955078,1.033203-.387695,1.033203-.710938.064453-1.292969-1.615234-.96875-3.748047-2.908203-3.748047-6.461914,0-4.717773,3.683594-10.727539,14.540039-10.727539,7.883789,0,13.44043,4.458984,13.44043,9.306641,0,1.873047-1.098633,3.8125-3.876953,3.8125-1.679688,0-3.166016-.453125-4.84668-4.330078-.904297-2.068359-2.067383-2.972656-4.135742-2.972656-3.553711,0-4.587891,2.003906-4.587891,4.330078,0,3.359375,2.326172,5.556641,4.264648,5.363281,1.745117-.193359,2.456055.128906,2.326172,1.615234-.128906,1.164062-.322266,2.197266-2.261719,2.84375-4.458008,1.486328-7.237305,4.458984-7.237305,10.274414,0,5.493164,3.748047,10.081055,9.757812,10.081055,8.46582,0,10.339844-6.914062,10.339844-11.890625,0-2.197266-.582031-3.424805-3.037109-3.424805-2.261719,0-3.360352,1.03418-3.683594,2.649414-.194336.969727-.839844,1.615234-2.261719,1.615234-.969727,0-1.357422-.645508-1.357422-2.067383-.064453-4.135742,1.292969-10.791992,8.207031-10.791992,2.908203,0,5.363281.710938,8.65918.710938,2.00293,0,3.037109-1.033203,3.424805-2.132812.517578-1.486328,1.292969-2.197266,2.326172-2.197266,1.03418,0,1.616211,1.292969,1.616211,3.232422-.06543,5.427734-2.714844,7.107422-5.364258,7.625-.387695.064453-1.033203.322266-.775391.646484.323242.386719,1.616211,1.9375,1.616211,5.556641,0,7.819336-7.367188,16.542969-21.389648,16.542969-14.992188,0-22.100586-7.689453-22.100586-15.960938Z"/>
    <path class="cls-3" d="M373.293157,175.139828c.839844.517578,1.550781,1.03418,1.550781,2.197266,0,1.745117-1.03418,2.649414-8.141602,2.649414h-4.006836c-6.849609,0-8.271484-.904297-8.271484-2.649414,0-1.098633.581055-1.615234,1.550781-2.197266,2.584961-1.550781,2.649414-3.553711,2.649414-5.945312v-10.919922c0-1.875-.323242-2.972656-1.679688-3.619141-1.357422-.517578-2.779297-.646484-2.779297-2.003906-.064453-1.486328,1.357422-2.00293,3.166992-2.712891,3.166016-1.228516,7.430664-2.714844,10.145508-2.714844,2.196289,0,3.101562.582031,3.101562,2.584961v2.261719c0,.969727.128906,1.291992.387695,1.291992.452148,0,2.520508-6.526367,10.791992-6.526367,3.941406,0,6.849609,2.00293,8.529297,5.557617.453125.904297.582031.96875.84082.96875.775391,0,2.00293-6.526367,10.209961-6.526367,5.104492,0,9.62793,2.649414,10.662109,11.696289l1.357422,11.890625c.128906,1.291992.257812,2.972656,2.77832,4.716797.839844.582031,1.550781,1.03418,1.550781,2.197266,0,1.745117-1.03418,2.649414-7.948242,2.649414h-4.006836c-6.267578,0-7.689453-.904297-7.689453-2.649414,0-1.098633.646484-1.615234,1.421875-2.132812,2.131836-1.356445,2.067383-3.618164,1.938477-4.716797l-1.03418-9.886719c-.387695-3.942383-1.874023-5.623047-4.071289-5.623047-2.131836,0-4.716797,2.456055-4.716797,7.949219v4.911133c0,3.876953.128906,5.750977,1.421875,7.108398.775391.775391,1.550781,1.227539,1.550781,2.390625,0,1.745117-1.03418,2.649414-6.850586,2.649414h-4.005859c-5.557617,0-6.979492-.904297-6.979492-2.649414,0-1.098633.646484-1.550781,1.486328-2.390625,1.292969-1.357422,1.421875-3.360352,1.421875-7.043945v-6.979492c0-4.845703-1.938477-5.945312-4.071289-5.945312-1.874023,0-4.975586,1.875-4.975586,8.013672v6.138672c0,2.584961.128906,4.458984,2.713867,6.009766Z"/>
    <path class="cls-3" d="M420.98554,163.508969c0-9.693359,7.754883-16.672852,18.999023-16.672852,11.179688,0,18.869141,6.979492,18.869141,16.737305s-7.689453,16.736328-18.869141,16.736328c-11.244141,0-18.999023-7.042969-18.999023-16.800781ZM446.253118,167.83807c0-5.428711-2.584961-15.832031-7.883789-15.832031-2.584961,0-4.782227,2.456055-4.782227,7.560547,0,5.428711,2.520508,15.702148,7.883789,15.702148,2.649414,0,4.782227-2.455078,4.782227-7.430664Z"/>
    <path class="cls-3" d="M481.343938,175.139828c.839844.517578,1.550781,1.03418,1.550781,2.197266,0,1.745117-1.03418,2.649414-8.141602,2.649414h-4.006836c-6.849609,0-8.271484-.904297-8.271484-2.649414,0-1.098633.581055-1.615234,1.550781-2.197266,2.584961-1.550781,2.649414-3.553711,2.649414-5.945312v-10.919922c0-1.875-.323242-2.972656-1.679688-3.619141-1.357422-.517578-2.779297-.646484-2.779297-2.003906-.064453-1.486328,1.357422-2.00293,3.166992-2.712891,3.166016-1.228516,7.430664-2.714844,10.145508-2.714844,2.196289,0,3.101562.582031,3.101562,2.584961v2.131836c0,.453125,0,1.421875.323242,1.421875.645508,0,2.390625-6.526367,8.982422-6.526367,4.005859,0,6.59082,2.649414,6.59082,7.948242,0,3.037109-2.197266,6.720703-5.879883,6.720703-2.132812,0-4.330078-1.163086-4.330078-4.005859,0-.775391,0-2.197266-1.615234-2.197266-2.197266,0-4.071289,3.748047-4.071289,8.271484v5.556641c0,2.584961.128906,4.458984,2.713867,6.009766Z"/>
    <path class="cls-3" d="M498.275579,163.508969c0-10.082031,8.142578-16.542969,17.448242-16.542969,9.499023,0,14.151367,6.849609,14.151367,11.4375,0,3.748047-1.615234,4.975586-5.686523,5.556641l-11.178711,1.616211c-1.03418.128906-1.357422.387695-1.357422,1.03418,0,2.261719,2.77832,5.880859,7.819336,5.880859,3.8125,0,6.526367-1.939453,7.689453-3.296875.387695-.386719.710938-.516602,1.098633-.516602,1.745117,0,1.938477,1.616211,1.680664,2.456055-1.163086,4.134766-5.493164,9.175781-14.475586,9.175781-10.662109,0-17.189453-7.753906-17.189453-16.800781ZM518.760931,157.628109c0-2.197266-1.874023-5.62207-4.523438-5.62207s-4.006836,2.00293-4.006836,6.074219c0,2.649414.517578,2.713867,1.874023,2.456055l4.65332-.905273c1.420898-.258789,2.00293-.839844,2.00293-2.00293Z"/>
  </g>
</svg>
