<?xml version="1.0" encoding="UTF-8"?>
<svg id="Layer_1" data-name="Layer 1" xmlns="http://www.w3.org/2000/svg" width="58.240874mm" height="58.240874mm" viewBox="0 0 165.092243 165.092243">
  <defs>
    <style>
      .cls-1 {
        fill: #fef297;
      }

      .cls-2 {
        fill: #2d2a4b;
      }
    </style>
  </defs>
  <path class="cls-1" d="M138.834155,113.348856l-.170166-.791016c-.060303-.32373-.129395-.65332-.21167-.989746l-1.462158-6.794434-9.317139-43.331543c-1.556641-7.222656-6.939453-12.075195-13.395508-12.075195-.983398,0-1.962891.116211-2.917969.347656l-11.727539,2.687988c-1.470459-.597168-3.047852-.915527-4.669922-.915527l-16.038086.132812c-.599609.000488-1.19873.058105-1.794434.144531-.844971-.179688-1.71167-.277344-2.592285-.277344l-.965576.007812c.000488-.037109.006348-.07373.006592-.111328l.001953-.259766s-.036133-1.027344-.050781-1.532227c-.128906-4.386719-.332031-9.378906-1.106445-13.115234-1.415039-6.81543-7.063477-11.395508-14.056641-11.395508-1.173828,0-2.391602.129883-3.614258.383789-4.185547.866211-7.398438,2.791016-9.548828,5.717773-1.634766,2.224609-3.349609,5.999023-2.241211,11.342773.064209.30957.14502.632812.222168.953125-.280762-.132812-.564453-.270508-.837402-.389648-1.90332-.829102-3.876953-1.25-5.864258-1.25-5.806641,0-10.791016,3.486328-13.331055,9.321289-1.707031,3.916016-1.991211,7.648438-.84375,11.092773.87207,2.619141,2.961914,6.199219,7.96582,8.380859.27832.121094.577881.237305.871582.354492-.259277.145996-.525391.291016-.77002.438477-3.787109,2.280273-6.280273,6.003906-6.841797,10.21582-.3125,2.34668-.166992,6.005859,2.304688,10.109375,4.030273,6.688477,9.513672,7.6875,12.423828,7.688477h.000977c2.523926,0,5.013428-.717773,7.402832-2.121582l-.074219,16.33252c-.617676.494629-1.208252,1.060547-1.757324,1.731445l-3.429688,4.25.87793,4.34082.150391,4.523438c.091797,2.764648,1.193359,5.442383,3.103516,7.477539,3.706055,3.949219,8.737305,3.952148,11.739258,3.955078,0,0,71.308594.082031,71.316406.082031,3.765625,0,10.045898-.010742,13.793945-5.347656,1.449219-2.061523,2.160156-4.516602,2.080078-6.974609l.008789-5.091797c.003906-2.917969-1.118164-5.767578-3.131836-7.904297-.483887-.513184-.98999-.956543-1.508789-1.344238Z"/>
  <g>
    <g>
      <path class="cls-2" d="M54.064492,40.221295c-.398297-1.919789.139185-3.063738,2.987058-3.654585,2.352022-.487972,3.857823.232058,4.268931,2.213594.757774,3.652463.829269,10.224548.920199,12.530134-.01175,1.810669-3.292792,2.491385-4.023884.834833-.833772-2.151468-3.381719-8.209765-4.152304-11.923976Z"/>
      <path class="cls-2" d="M34.804354,60.238788c-1.79737-.783383-2.420963-1.882764-1.258869-4.549039.959758-2.202042,2.417127-3.015651,4.272307-2.207071,3.419559,1.490413,8.826504,5.227037,10.761364,6.484139,1.471503,1.055148.132651,4.12697-1.641973,3.767295-2.237982-.561629-8.655461-1.979715-12.132829-3.495324Z"/>
      <path class="cls-2" d="M39.98803,87.50832c-1.679497,1.011691-2.9369.88345-4.437674-1.607968-1.23947-2.057629-1.058838-3.716923.674678-4.761154,3.1953-1.924777,9.372729-4.169056,11.518052-5.018515,1.712353-.588647,3.441399,2.281721,2.120509,3.520232-1.75386,1.499322-6.626246,5.910087-9.875565,7.867404Z"/>
    </g>
    <path class="cls-2" d="M77.523224,76.798801l.051393-11.289722c.004283-.972544.196115-2.568944,1.377979-2.550386l15.955972-.131695c1.071048-.053535,1.876743,1.48826,1.867107,3.572896l-.054962,10.403904c-.334234-.137048-.726642-.230199-1.185969-.223061l-6.874193.070309c-.508578-.042114-1.027506-.070666-1.566421-.070666-.679889,0-1.334081.039616-1.966502.106712l-7.070486.072093c-.207-.000714-.378311.015703-.533918.039616ZM96.056527,84.926773l-7.070486.07245c-.632421.067097-1.286435.106712-1.966502.106712-.538736,0-1.057664-.028909-1.566242-.070666l-6.874193.070309c-.417748.006424-.775894-.073878-1.092819-.188442l-.145792,31.987606c-.046397,2.014683.574961,3.622861,1.904045,3.504371l15.881916.00571c.959696.01499,1.444005-.881536,1.377622-2.550386l.174166-32.993699c-.175593.033548-.373314.05746-.621715.056033ZM132.135275,122.578324l-.008292,5.440846c.164176.455355-2.057381.668167-4.840705.652299l-70.998538-.080229c-1.343432-.001483-3.548915-.067166-3.52334-.472025l-.181686-5.466292c-.074051-.366925,2.055836-.64292,4.935618-.639588l71.093562.092977c2.305487-.022717,3.544148.143231,3.523381.472012ZM76.350817,66.399894l-.271242,51.464545c.066204,1.66885-.418283,2.565376-1.377979,2.550386l-15.881737-.00571c-1.329263.11849-1.950264-1.489688-1.904045-3.504371l.234303-51.395664c.004283-.972544.195936-2.568944,1.377622-2.550386l15.95615-.131695c1.071048-.053535,1.876564,1.48826,1.866928,3.572896ZM74.833826,72.49498c-.376348-2.750962-3.61376-4.629668-8.172762-4.629668-4.718892,0-8.072296,2.032171-8.225762,4.963366l-.004818.278023c.001071.063528.002677.127055.006603.189512.043898.499299.71308.862977,1.600683.849772l13.59492-.131338c1.018762.00464,1.184006-.401866,1.187753-.649553l.013384-.870115ZM106.653512,108.835659l-9.006117-41.74053c-.205216-.950417-.361715-2.550743.796237-2.787365l15.553392-3.564687c1.034287-.283019,2.15316,1.049277,2.5925,3.087159l8.771457,40.794396c-.315497-.03105-.656155-.026767-1.031611.0621l-6.935044,1.603895c-.432916.064241-.859765.114921-1.307492.213424-.66365.146328-1.293573.325847-1.896372.527494l-6.889896,1.593545c-.268208.057817-.473959.130981-.647054.210569ZM101.584683,71.284029c.495373.852984,3.154256.924006,6.703774.140974,3.673898-.810156,6.135416-2.063578,6.039054-3.067886l-.016417-.093507c-.00571-.021057-.011421-.042114-.019272-.0621-.070666-.159176-.618502-.1656-1.308741-.008566l-10.574858,2.378005c-.793739.173452-.892421.337268-.877074.420782l.053535.292299ZM102.27171,74.399383c.495551.852984,3.154434.924006,6.703774.141331,3.673898-.810513,6.135416-2.064292,6.039054-3.0686l-.016417-.093507c-.00571-.0207-.011421-.041757-.019272-.0621-.070666-.158819-.618502-.165243-1.308741-.008566l-10.574858,2.378361c-.79356.173452-.892421.337268-.877074.420425l.053535.292656ZM127.076228,112.601993c-.128483.045326-.273026.086726-.439697.122416l-6.890253,1.593902c-.602799.20129-1.232544.380809-1.896194.527137-.44737.09886-.874219.149183-1.306957.213424l-6.935579,1.604252c-.468606.110638-.892242.102786-1.258597.029979l.138654.642415c.388661,1.977566,1.341576,3.414077,2.613914,3.011854l15.510386-3.414433c.940424-.192011,1.220409-1.17205.796237-2.787365l-.331914-1.543579Z"/>
  </g>
</svg>