<?xml version="1.0" encoding="UTF-8"?>
<svg id="Layer_1" data-name="Layer 1" xmlns="http://www.w3.org/2000/svg" width="117.704455mm" height="118.565108mm" viewBox="0 0 333.650429 336.090075">
  <defs>
    <style>
      .cls-1 {
        fill: #fff;
      }

      .cls-2 {
        fill: #2d2a4b;
      }
    </style>
  </defs>
  <g>
    <path class="cls-1" d="M79.62209,184.676588c4.716797,0,8.961914-4.127197,8.961914-13.443604,0-12.262207-3.537598-24.408691-10.849121-24.408691-5.54248,0-8.842285,4.834717-8.842285,14.621582v2.949463c0,13.796387,4.714844,20.28125,10.729492,20.28125Z"/>
    <path class="cls-1" d="M97.100117,95.775465c4.892578,0,8.275879-3.406738,8.275879-8.253418,0-4.869629-3.383301-8.275879-8.275879-8.275879-4.869629,0-8.299316,3.40625-8.299316,8.275879,0,4.84668,3.429688,8.253418,8.299316,8.253418Z"/>
    <path class="cls-1" d="M33.397969,208.142408c0,2.477051,2.239746,4.127197,5.541992,4.127197,4.599121,0,6.604004-2.357666,7.546875-6.839355-2.594727-.942871-5.069824-1.532715-7.193848-1.532715-3.419922,0-5.89502,1.769531-5.89502,4.244873Z"/>
    <path class="cls-1" d="M315.752461,102.902418s-.115234-.070312-.126953-.077148c-.064453-.739258-.064453-1.916992-.064453-2.371094v-59.550781c0-7.115234-4.114258-14.717773-15.662109-14.717773-5.261719,0-12.086914,1.736328-22.173828,5.646484l-.260742.102539c-1.733398.680664-4.560547,1.803711-7.022461,3.816162-1.661621-5.205322-6.138672-9.565186-14.881836-9.565186-5.261719,0-12.086914,1.736328-22.173828,5.646484l-.260742.102539c-3.645508,1.431641-12.148438,4.770508-11.855469,14.381836.058594,3.775391,1.612305,8.584961,8.134766,11.52832v38.002686c-1.107422-.508057-2.303711-.865479-3.574219-1.033936l-2.100586-15.705078c-1.648438-12.594727-6.926758-29.338867-33.618164-29.338867-22.603516,0-39.009766,11.249023-39.009766,26.746094,0,3.484375,1.029297,6.685547,2.806641,9.320312-3.869141,4.093262-6.282227,9.079346-6.963867,14.711426-1.246094-.549072-2.661133-.95459-4.251465-1.195801-.183594-1.485352-.598145-2.972168-1.27002-4.416016l-17.036133-44.140625-.094727-.235352c-2.462891-5.931641-8.089844-9.764648-14.334961-9.764648-2.242188,0-4.431641.481445-6.425781,1.394531l-26.349609,11.760742c-.149902-4.751953-.399902-9.965576-1.199219-13.820312-1.333984-6.420898-6.661133-10.735352-13.256836-10.735352-1.149414,0-2.350586.12793-3.574219.380859-10.332031,2.146484-12.523438,10.018555-11.259766,16.109375.54248,2.613281,1.54834,5.670166,2.679688,8.732422-2.755859-1.731445-5.525391-3.335449-7.936523-4.385742-1.814453-.791016-3.685547-1.192383-5.561523-1.192383-5.454102,0-10.167969,3.345703-12.611328,8.951172-.621094,1.424805-2.511719,5.762695-.883789,10.650391.811523,2.435547,2.777344,5.774414,7.530273,7.844727,2.438965,1.063232,5.504395,2.005371,8.647949,2.848145-2.998047,1.241211-5.898926,2.566162-8.144043,3.919434-6.729492,4.051758-8.496094,12.170898-4.199219,19.30957,3.694336,6.131836,8.425781,7.418945,11.745117,7.419922h.000977c2.420898,0,4.837891-.716797,7.183594-2.129883,3.657227-2.202148,7.996094-5.90332,11.775391-9.198242.451172-.393555.836914-.730469,1.139648-.988281l.113281-.096924,10.327148,26.575439c.034668.091309.076172.177002.112305.267334-1.859375-.653076-4.033691-1.031982-6.580078-1.031982-5.267578,0-12.092773,1.737305-22.166016,5.645508l-.246094.09668c-3.65332,1.430664-12.175781,4.768555-11.87793,14.394531.05957,3.774414,1.615234,8.581055,8.134766,11.522461v28.957031c-.205078-.00293-.40918-.003906-.613281-.003906-15.644531,0-26.155273,9.800781-26.155273,24.386719,0,13.789062,12.041992,23.797852,28.632812,23.797852,9.666992,0,18.113281-2.623047,24.830078-7.652344,5.171875,2.301514,10.513672,4.321533,15.976074,5.606445-5.290527,7.083252-8.35791,16.329102-8.35791,26.84082,0,23.246094,13.181641,39.481445,32.053711,39.481445,6.295898,0,11.318359-1.701172,15.25293-3.989258,2.464844,2.000977,5.951172,3.28125,10.688477,3.28125,5.265625,0,12.09082-1.736328,22.169922-5.644531l.25-.098633c.745117-.292236,1.697266-.67041,2.731445-1.158691,4.772949,4.531494,11.939453,7.609863,22.138672,7.609863,9.495117,0,15.887695-2.318359,20.212891-5.057617,3.029297,2.323975,7.077637,4.039307,12.467285,4.47168,1.123535,11.914551,10.837402,20.041992,24.39502,20.041992,15.807617,0,28.257812-13.973633,38.335938-27.623047,7.783203-10.483398,20.956055-32.155273,20.956055-46.880859,0-15.260742-8.574219-25.918945-20.850586-25.918945-4.257812,0-8.071289,1.076172-11.163086,2.97168-3.120117-1.439453-6.644043-1.912354-9.436523-2.068848,7.34668-5.338623,13.766602-13.120117,19.435547-20.79834,7.783203-10.482422,20.956055-32.152344,20.956055-46.878906,0-7.556152-2.104004-13.981201-5.716309-18.546143,1.492188.06543,3.118652.0979,4.908691.0979h7.30957c7.81543,0,12.423828-.549805,15.904297-1.897461,5.69043-2.204102,8.955078-6.918945,8.955078-12.9375,0-5.213867-2.553711-9.428711-7.59082-12.526367ZM61.790547,76.182691c-.600586-1.443848-1.071777-4.033203,2.230469-5.406738l43.587402-19.454102c2.94873-1.348633,6.163086-.022461,7.44873,3.073242l17.187012,44.530273c1.235352,2.390625.451172,4.29126-2.230957,5.406494l-43.466797,19.162842c-3.626465,1.750977-6.369141.10791-7.508789-2.927734l-17.24707-44.384277ZM88.82082,206.727613c3.537598,0,6.720215-1.415039,9.07959-2.475342,4.716797-2.004883,11.319336-.589844,12.026855,4.362549.589844,4.244629-.942871,7.074463-5.305176,9.786865-2.949219,1.769531-7.311523,3.184326-13.088867,3.184326-10.141602,0-20.400879-4.481689-29.599609-8.96167-5.069824,5.894775-12.734375,9.551514-22.993652,9.551514-10.61377,0-18.631348-5.306641-18.631348-13.796387,0-9.081299,6.249512-14.38623,16.154297-14.38623,3.774414,0,7.429199.470215,10.61377,1.060059v-41.50708c0-3.419678-.589844-5.424561-3.066895-6.604248-2.475098-.942627-5.069824-1.179688-5.069824-3.654785-.117676-2.712402,2.477051-3.656738,5.777344-4.952393,5.778809-2.241699,13.561035-4.954102,18.513672-4.954102,4.009277,0,5.661621,1.062256,5.661621,4.717041v3.774414c0,1.885254.117188,2.94751.707031,2.94751,1.178223,0,5.660156-12.14624,19.574219-12.14624,11.556152,0,21.933105,9.669189,21.933105,27.592773,0,19.2229-13.088867,33.489746-29.597656,33.489746-3.89209,0-7.312012-1.177734-9.669434-2.947266-.825195-.589844-1.769531-1.297363-2.122559-1.297363-.472168,0-.824707.589844-.824707,2.23999v.70752c0,3.302002-.472656,6.604248-1.297852,9.551514,6.720215,2.594727,13.442383,4.717285,21.226074,4.717285ZM137.876484,193.16609h-7.30957c-12.499512,0-15.094238-1.649902-15.094238-4.834473,0-2.004883,1.060547-2.94751,2.830078-4.007812,4.717285-2.831543,4.834961-6.486572,4.834961-10.849121v-44.221191c0-3.419678-.589844-5.424316-3.067383-6.602295-2.475098-.94458-5.069824-1.179932-5.069824-3.656738-.117676-2.712402,2.477051-3.655029,5.777344-4.952393,5.779297-2.23999,13.561523-4.952148,18.513672-4.952148,4.009766,0,5.661621,1.060303,5.661621,4.717041v59.550049c0,4.715332.235352,8.135254,4.952148,10.966797,1.532715.942627,2.830078,1.885254,2.830078,4.007812,0,3.18457-1.887207,4.834473-14.858887,4.834473ZM210.989765,193.285719c-7.546875,0-11.083984-3.18457-12.971191-8.019287-.235352-.70752-.70752-1.297363-1.177734-1.297363-1.652344,0-3.302246,9.786865-21.226074,9.786865-15.211426,0-20.045898-8.25415-20.045898-16.979004,0-11.674316,11.437012-18.750732,26.767578-19.928711,7.310059-.589844,8.961914-1.416504,8.489746-5.189209l-.235352-2.004639c-.589844-4.599609-2.004395-7.546875-6.839355-7.546875-3.419434,0-6.72168,2.004639-7.901367,6.604004-1.179688,4.834717-4.127441,7.192383-9.434082,7.192383-3.06543,0-6.484863-2.23999-6.484863-6.484863,0-9.90625,13.324219-16.745605,29.007812-16.745605,17.570801,0,22.050781,8.019043,23.703125,20.635742l2.711914,20.283203c.589844,4.362305,1.650391,5.069824,3.419922,5.069824,2.239746,0,2.82959-1.060303,4.126953-1.060303,1.178223,0,2.712402.589844,2.712402,3.302246,0,5.659668-6.131836,12.381592-14.623535,12.381592ZM262.99709,189.62898c-9.316895,12.618408-19.575684,23.585205-30.307129,23.585205-8.961914,0-14.504395-4.954102-14.504395-12.381592,0-4.954102,3.657227-8.609131,8.137207-8.609131,3.891602,0,6.486328,1.887207,8.019043,4.834717,1.179688,2.23999,1.887207,6.839355,3.890137,6.839355,1.651855,0,3.89209-1.887207,5.896973-4.126953,1.769531-2.004883,1.532227-2.830078-1.532715-10.612305-5.896973-14.858398-11.084473-29.127197-14.741211-39.739258-1.177734-3.537354-2.82959-5.424561-4.597656-6.486572-1.53418-.942627-2.82959-2.475342-2.82959-4.597656,0-3.774414,2.947266-4.717041,10.376465-4.717041h16.271973c9.19873,0,10.496094,1.650146,10.496094,4.597656,0,2.122559-1.415039,3.18457-2.241699,3.774414-3.300293,2.357422-5.1875,3.891846-4.244629,6.72168,1.886719,5.89502,5.306641,15.564453,8.371582,22.521484.944824,2.124023,2.594727,1.769531,3.539551,0,3.890137-7.074707,5.777344-12.026855,5.777344-15.329102,0-3.065186-1.297363-4.47998-2.594727-5.89502-3.06543-3.302002-4.362305-6.486572-4.362305-9.551758,0-4.716797,3.891602-7.66626,9.314453-7.66626,8.136719,0,10.849121,8.844238,10.849121,15.920654,0,10.259277-10.141602,29.008057-18.983887,40.91748Z"/>
    <path class="cls-1" d="M193.183613,168.050367c-.470215-3.537598-2.004395-4.244873-6.484375-4.244873-6.722168,0-9.07959,4.007812-9.07959,9.314697,0,6.01416,3.302246,8.844238,8.01709,8.844238,4.954102,0,8.844727-4.834717,7.666504-13.089111l-.119629-.824951Z"/>
  </g>
  <path class="cls-2" d="M81.389688,256.971985c0-17.216235,10.613797-31.484985,28.065261-31.484985,9.081248,0,11.674108,4.480035,13.326054,4.480035.942696,0,.942696-2.240017.942696-5.069888v-2.947485c0-3.419724-.589853-5.424513-3.065099-6.60422-2.477028-.942696-5.07167-1.179707-5.07167-3.654953-.117614-2.712256,2.477028-3.654953,5.779138-4.952274,5.777356-2.241799,13.5595-4.954056,18.513556-4.954056,4.009578,0,5.659742,1.062093,5.659742,4.717045v59.078007c0,3.419724.589853,5.424513,3.065099,6.60422,2.477028.942696,5.07167,1.179707,5.07167,3.654953.117614,2.712256-2.477028,3.656735-5.779138,4.954056-5.777356,2.240017-13.5595,4.952274-18.513556,4.952274-4.007796,0-5.659742-1.062093-5.659742-4.717045v-.707468c0-4.244806-.117614-5.896752-.707468-5.896752-1.179707,0-5.542127,12.028733-19.573867,12.028733-13.326054,0-22.052677-12.381576-22.052677-29.480197ZM123.7237,254.377343v-1.297321c0-11.084255-4.127192-18.513556-10.72963-18.513556-4.481817,0-8.844237,3.891963-8.844237,15.8013,0,12.146347,4.007796,21.343427,10.96664,21.343427,4.36242,0,8.607227-3.537338,8.607227-17.333849ZM156.627184,269.471175c0-11.674108,11.437097-18.748785,26.76794-19.928492,7.309905-.589853,8.961851-1.414935,8.489612-5.189284l-.235229-2.003007c-.589853-4.599431-2.004789-7.546916-6.839448-7.546916-3.419724,0-6.721834,2.003007-7.901541,6.602438-1.179707,4.83466-4.127192,7.194073-9.434091,7.194073-3.065099,0-6.484824-2.241799-6.484824-6.486606,0-9.904548,13.324272-16.743996,29.007957-16.743996,17.57086,0,22.050895,8.017373,23.702841,20.635959l2.712256,20.281335c.589853,4.364202,1.650164,5.07167,3.419724,5.07167,2.240017,0,2.829871-1.062093,4.127192-1.062093,1.177925,0,2.712256.589853,2.712256,3.30211,0,5.659742-6.131981,12.381576-14.623375,12.381576-7.546916,0-11.084255-3.184496-12.971429-8.019155-.235229-.707468-.707468-1.295539-1.177925-1.295539-1.651946,0-3.30211,9.786933-21.225813,9.786933-15.211446,0-20.046106-8.254384-20.046106-16.981007ZM194.361765,261.571416l-.119396-.826864c-.470457-3.537338-2.004789-4.244806-6.484824-4.244806-6.721834,0-9.079466,4.009578-9.079466,9.316476,0,6.014366,3.30211,8.844237,8.017373,8.844237,4.954056,0,8.844237-4.83466,7.666312-13.089043ZM219.244312,293.526859c0-4.952274,3.656735-8.607227,8.136769-8.607227,3.891963,0,6.486606,1.885392,8.019155,4.83466,1.179707,2.240017,1.887175,6.839448,3.890181,6.839448,1.651946,0,3.891963-1.887175,5.896752-4.127192,1.76956-2.004789,1.53255-2.831653-1.53255-10.613797-5.896752-14.858604-11.084255-29.125572-14.740989-39.739369-1.177925-3.537338-2.829871-5.424513-4.597649-6.484824-1.534332-.944478-2.829871-2.477028-2.829871-4.599431,0-3.772567,2.947485-4.717045,10.376787-4.717045h16.271757c9.198862,0,10.496183,1.651946,10.496183,4.599431,0,2.122403-1.414935,3.184496-2.241799,3.772567-3.300328,2.359414-5.187502,3.891963-4.244806,6.721834,1.887175,5.896752,5.306899,15.566071,8.371998,22.523134.944478,2.122403,2.594642,1.76956,3.53912,0,3.890181-7.074677,5.777356-12.028733,5.777356-15.329061,0-3.066881-1.297321-4.481817-2.594642-5.896752-3.065099-3.30211-4.36242-6.484824-4.36242-9.551705,0-4.717045,3.891963-7.66453,9.314694-7.66453,8.136769,0,10.849026,8.844237,10.849026,15.918914,0,10.259173-10.141558,29.007957-18.984013,40.919076-9.316476,12.616804-19.575649,23.583444-30.307061,23.583444-8.961851,0-14.503979-4.952274-14.503979-12.381576ZM156.741282,103.873838c0-11.674108,11.437097-18.750567,26.76794-19.928492,7.309905-.589853,8.961851-1.416717,8.489612-5.189284l-.235229-2.004789c-.589853-4.599431-2.004789-7.546916-6.839448-7.546916-3.419724,0-6.721834,2.004789-7.901541,6.60422-1.179707,4.83466-4.127192,7.192291-9.434091,7.192291-3.065099,0-6.484824-2.240017-6.484824-6.484824,0-9.90633,13.324272-16.745778,29.007957-16.745778,17.57086,0,22.050895,8.019155,23.702841,20.635959l2.712256,20.283117c.589853,4.36242,1.650164,5.069888,3.419724,5.069888,2.240017,0,2.829871-1.060311,4.127192-1.060311,1.177925,0,2.712256.589853,2.712256,3.30211,0,5.659742-6.131981,12.381576-14.623375,12.381576-7.546916,0-11.084255-3.184496-12.971429-8.019155-.235229-.707468-.707468-1.297321-1.177925-1.297321-1.651946,0-3.30211,9.786933-21.225813,9.786933-15.211446,0-20.046106-8.254384-20.046106-16.979225ZM194.475862,95.972297l-.119396-.825082c-.470457-3.537338-2.004789-4.244806-6.484824-4.244806-6.721834,0-9.079466,4.007796-9.079466,9.314694,0,6.014366,3.30211,8.844237,8.017373,8.844237,4.954056,0,8.844237-4.83466,7.666312-13.089043ZM266.174238,111.420754c1.53255.942696,2.829871,1.885392,2.829871,4.007796,0,3.184496-1.887175,4.83466-14.858604,4.83466h-7.309905c-12.49919,0-15.093832-1.650164-15.093832-4.83466,0-2.004789,1.060311-2.947485,2.829871-4.007796,4.717045-2.831653,4.83466-6.486606,4.83466-10.849026v-44.221186c0-3.419724-.589853-5.424513-3.066881-6.602438-2.475246-.944478-5.069888-1.179707-5.069888-3.656735-.117614-2.712256,2.477028-3.654953,5.777356-4.952274,5.779138-2.240017,13.561282-4.952274,18.513556-4.952274,4.009578,0,5.661524,1.060311,5.661524,4.717045v59.550247c0,4.715263.235229,8.134987,4.952274,10.96664ZM310.513038,111.420754c1.53255.942696,2.829871,1.885392,2.829871,4.007796,0,3.184496-1.887175,4.83466-14.858604,4.83466h-7.309905c-12.49919,0-15.093832-1.650164-15.093832-4.83466,0-2.004789,1.060311-2.947485,2.829871-4.007796,4.717045-2.831653,4.83466-6.486606,4.83466-10.849026v-44.221186c0-3.419724-.589853-5.424513-3.066881-6.602438-2.475246-.944478-5.069888-1.179707-5.069888-3.656735-.117614-2.712256,2.477028-3.654953,5.777356-4.952274,5.779138-2.240017,13.561282-4.952274,18.513556-4.952274,4.009578,0,5.661524,1.060311,5.661524,4.717045v59.550247c0,4.715263.235229,8.134987,4.952274,10.96664ZM57.684766,43.852207c-.466923-2.250564.163166-3.591613,3.501722-4.284261,2.75727-.572049,4.522517.272041,5.004458,2.594992.888337,4.281774.97215,11.986214,1.078747,14.689046-.013775,2.122643-3.860133,2.920644-4.71719.978672-.977429-2.522161-3.964381-9.624289-4.867736-13.978449ZM35.106152,67.318668c-2.107053-.918358-2.838089-2.20716-1.475769-5.332828,1.125123-2.581448,2.833592-3.53524,5.008416-2.587344,4.00874,1.747207,10.34729,6.127643,12.615522,7.601341,1.72504,1.236948.155507,4.838037-1.924882,4.416392-2.623581-.658396-10.146776-2.320815-14.223287-4.09756ZM41.182962,99.286677c-1.96887,1.186003-3.442921,1.035666-5.202274-1.885017-1.453027-2.412154-1.241273-4.35734.790924-5.581489,3.745843-2.256412,10.987628-4.887375,13.502586-5.883193,2.007388-.690069,4.034344,2.674857,2.485867,4.12676-2.056046,1.757652-7.767933,6.928381-11.577102,9.222939Z"/>
</svg>