<?xml version="1.0" encoding="UTF-8"?>
<svg id="Layer_1" data-name="Layer 1" xmlns="http://www.w3.org/2000/svg" width="58.240874mm" height="58.240874mm" viewBox="0 0 165.092243 165.092243">
  <defs>
    <style>
      .cls-1 {
        fill: #a9dbd3;
      }

      .cls-2 {
        fill: #f8f09b;
      }

      .cls-3 {
        fill: #2d2a4b;
      }
    </style>
  </defs>
  <path class="cls-1" d="M147.015051,80.127664c-1.539062-1.845703-3.501953-3.410156-5.868164-4.670898l-.115234-.061523c-2.438477-1.292969-8.916992-4.728516-13.433594-8.524414l-.270508-.219727c-3.615234-2.854492-7.447266-4.301758-11.389648-4.301758-.353027,0-.706055.012695-1.057617.037109-1.843994-4.043945-5.55957-6.998535-10.09375-7.772461l-2.430664-.436523c-.485107-.799805-1.04126-1.556152-1.682617-2.244141-2.576172-2.78125-6.234375-4.374023-10.054688-4.374023-.30957,0-.745117.007812-1.270508.057617l-8.35376.660156c.001465-.390625.005127-1.287598.005127-1.321289.191406-.069336,1.472656-.525391,1.472656-.525391l.211914-.084961c5.756836-2.302734,9.016602-8.345703,7.927734-14.697266-1.089844-6.349609-6.173828-10.959961-12.364258-11.211914l-.230469-.009766-1.520508-.004883c-.148438-.418945-.276367-.779297-.37207-1.06543l-.109375-.330078-.129883-.322266c-1.987305-4.923828-6.808594-8.105469-12.285156-8.105469-7.344727,0-13.322266,5.522461-13.610352,12.572266l-.009766.231445s-.00293,1.009766-.007812,1.518555c-.448242.160156-1.407227.492188-1.407227.492188l-.273438.109375c-1.880615.751465-3.48877,1.907227-4.772461,3.336914-.470459-.049316-.943604-.081055-1.418945-.081055-4.208008,0-8.02832,1.915039-10.482422,5.25293l-.207031.282227-.189453.293945c-.168945.262695-.392578.597656-.652344.987305-.099609-.023438-1.636719-.400391-1.636719-.400391l-.379883-.067383c-.762695-.135742-1.524414-.205078-2.262695-.205078-5.720703,0-10.801758,3.810547-12.642578,9.481445-1.804688,5.556641.052734,11.518555,4.621094,14.834961l.251953.182617.260742.167969c.265625.171875.603516.397461.99707.660156-.018555.075195-.355469,1.451172-.355469,1.451172l-.043945.206055c-.707275,3.346191-.04126,6.795898,1.821777,9.660645-1.424316,3.021484-1.675781,6.483887-.597168,9.648926l.064453.191406.544922,1.435547c-.34668.299805-.645508.556641-.880859.75293l-.238281.198242-.227539.210938c-3.931641,3.646484-5.166016,9.331055-3.144531,14.481445,2.060547,5.25293,7.082031,8.782227,12.493164,8.782227,1.163086,0,2.296875-.15625,3.467773-.477539l.619141-.169922.59668-.239258c.280273-.112305.640625-.248047,1.05957-.407227.115234.134766,1.068359,1.248047,1.068359,1.248047l.224609.234375c1.252441,1.308594,2.735596,2.311035,4.362793,2.98291-2.028809,3.137695-2.943848,6.487793-2.695801,10.007324.481445,6.857422,5.382812,11.594727,6.999023,13.157227,5.394531,5.207031,10.629883,6.299805,14.071289,6.299805,3.331055,0,8.251953-.985352,12.783203-5.682617.537109-.557617,1.09375-1.163086,1.671875-1.816406.261719.098633.526367.191406.793945.27832,1.786133.588867,3.62793.887695,5.475586.887695.229492,0,.457031-.004883.68457-.014648,1.583984,1.246094,3.420898,2.235352,5.462891,2.896484,0,0,.264648.083008.338867.105469.085938.869141.183594,1.6875.292969,2.453125,1.351562,9.405273,8.529297,15.482422,18.288086,15.482422,1.275391,0,2.580078-.09668,3.826172-.280273,13.384766-1.903809,16.509521-10.07373,17.005859-15.783203,2.780518-1.725586,8.182861-4.945801,13.020508-6.700195l.31543-.119141c5.949219-2.360352,9.943359-6.74707,11.115234-12.040039.817383-2.227539,1.195312-4.679688,1.125977-7.321289l-.004883-.143555c-.097656-2.492188-.395508-10.077148.651367-15.991211l.054688-.339844c.923828-6.333984-.880859-11.986328-4.875-15.647461ZM56.45133,69.120828l.02124.40332c-.111328-.062988-.223145-.125-.336182-.185059.104736-.073242.212402-.14209.314941-.218262Z"/>
  <g>
    <g>
      <g>
        <path class="cls-2" d="M42.129084,96.90909c.965177,1.140858,1.79895,2.106035,2.310818,2.705923.307264.321726.716652.46777,1.155498.46777,1.301721,0,2.808225-1.286902,2.384019-2.573805-.292445-.731292-.731292-1.930711-1.272619-3.320094-1.242982-3.232253-.307085-6.888713,2.325637-9.126866,1.140858-.965177,2.091395-1.813233,2.691283-2.31064,1.213702-1.126218-.102481-3.612539-1.638265-3.612539-.146223,0-.307085.02928-.453487.072844-.731292.292802-1.930354.731292-3.319915,1.272619-.965355.365646-1.945172.541327-2.925168.541327-2.354739,0-4.636455-1.009097-6.215981-2.866607-.950715-1.141215-1.799128-2.106392-2.310818-2.705923-.307264-.321726-.716652-.468127-1.140858-.468127-1.301721,0-2.822865,1.287259-2.384019,2.574162.277984.731292.731292,1.930711,1.257801,3.320094,1.243161,3.232253.321726,6.888713-2.325637,9.126509-1.12604.965177-2.091395,1.81359-2.690926,2.310997-1.214059,1.126218.102302,3.612539,1.637908,3.612539.161041,0,.307085-.02928.468127-.073201.731292-.292445,1.930711-.731292,3.320094-1.272262.950537-.365646,1.945172-.541327,2.925168-.541327,2.340098,0,4.621636,1.009097,6.201341,2.866607Z"/>
        <path class="cls-2" d="M31.320568,60.797981c-.365646,1.447944-.65827,2.690926-.848234,3.451498-.263344,1.243339,1.16996,2.267076,2.413121,2.267076.541327,0,1.038377-.189965,1.345641-.628811.438668-.658091,1.15532-1.711109,1.959812-2.954448,1.535784-2.32528,4.109946-3.6711,6.801051-3.6711.65827,0,1.316361.073201,1.974452.233885,1.447944.365646,2.691283.658448,3.451855.848413.102302.01464.189965.02928.292445.02928,1.623447,0,2.749486-2.793407,1.360103-3.787864-.658091-.438847-1.725749-1.155498-2.969088-1.974631-2.881247-1.88679-4.25599-5.411489-3.422218-8.760863.365646-1.447944.658091-2.691283.848056-3.451855.248882-1.242982-1.1846-2.281717-2.427761-2.281717-.526509,0-1.023737.190322-1.345463.629168-.424206.658091-1.140858,1.711109-1.959991,2.969088-1.521144,2.32528-4.109946,3.6711-6.801051,3.6711-.658091,0-1.316361-.087841-1.974452-.248882-1.447944-.365646-2.691283-.658091-3.451676-.848056-.087662-.01464-.190143-.02928-.277984-.02928-1.637908,0-2.749486,2.793407-1.360103,3.802504.658091.424206,1.711109,1.140858,2.954448,1.959991,2.895887,1.90143,4.270631,5.411489,3.437036,8.775503Z"/>
        <path class="cls-2" d="M53.186304,40.102562h.131404c.789852,0,2.003911.014283,3.422575.014283,3.451676.014997,6.537707,2.193876,7.678565,5.455409.482588,1.419021.921435,2.618082,1.184779,3.349374.277805.702012.994457,1.009454,1.755029,1.009454,1.082298,0,2.252436-.628811,2.296178-1.696826,0-.775212.01464-2.062115.01464-3.553979,0-3.451498,2.193876-6.537707,5.455588-7.678565,1.404023-.482767,2.603264-.921256,3.349196-1.184779,1.682007-.672731,1.111578-3.978185-.68755-4.051386h-.146044c-.789852,0-2.003911-.014283-3.407935-.014283-3.466317,0-6.537707-2.193876-7.678565-5.455766-.497229-1.404023-.935897-2.603442-1.184779-3.349017-.277805-.687729-1.009097-1.009454-1.769669-1.009454-1.082298,0-2.237796.643808-2.281538,1.696469,0,.789852-.01464,2.062472-.02928,3.554336,0,3.466495-2.179236,6.537707-5.440948,7.678565-1.418663.49705-2.617904.935897-3.349196,1.184779-1.682007.672731-1.126218,3.978185.68755,4.051386Z"/>
      </g>
      <g>
        <path class="cls-3" d="M42.129084,96.90909c.965177,1.140858,1.79895,2.106035,2.310818,2.705923.307264.321726.716652.46777,1.155498.46777,1.301721,0,2.808225-1.286902,2.384019-2.573805-.292445-.731292-.731292-1.930711-1.272619-3.320094-1.242982-3.232253-.307085-6.888713,2.325637-9.126866,1.140858-.965177,2.091395-1.813233,2.691283-2.31064,1.213702-1.126218-.102481-3.612539-1.638265-3.612539-.146223,0-.307085.02928-.453487.072844-.731292.292802-1.930354.731292-3.319915,1.272619-.965355.365646-1.945172.541327-2.925168.541327-2.354739,0-4.636455-1.009097-6.215981-2.866607-.950715-1.141215-1.799128-2.106392-2.310818-2.705923-.307264-.321726-.716652-.468127-1.140858-.468127-1.301721,0-2.822865,1.287259-2.384019,2.574162.277984.731292.731292,1.930711,1.257801,3.320094,1.243161,3.232253.321726,6.888713-2.325637,9.126509-1.12604.965177-2.091395,1.81359-2.690926,2.310997-1.214059,1.126218.102302,3.612539,1.637908,3.612539.161041,0,.307085-.02928.468127-.073201.731292-.292445,1.930711-.731292,3.320094-1.272262.950537-.365646,1.945172-.541327,2.925168-.541327,2.340098,0,4.621636,1.009097,6.201341,2.866607Z"/>
        <path class="cls-3" d="M31.320568,60.797981c-.365646,1.447944-.65827,2.690926-.848234,3.451498-.263344,1.243339,1.16996,2.267076,2.413121,2.267076.541327,0,1.038377-.189965,1.345641-.628811.438668-.658091,1.15532-1.711109,1.959812-2.954448,1.535784-2.32528,4.109946-3.6711,6.801051-3.6711.65827,0,1.316361.073201,1.974452.233885,1.447944.365646,2.691283.658448,3.451855.848413.102302.01464.189965.02928.292445.02928,1.623447,0,2.749486-2.793407,1.360103-3.787864-.658091-.438847-1.725749-1.155498-2.969088-1.974631-2.881247-1.88679-4.25599-5.411489-3.422218-8.760863.365646-1.447944.658091-2.691283.848056-3.451855.248882-1.242982-1.1846-2.281717-2.427761-2.281717-.526509,0-1.023737.190322-1.345463.629168-.424206.658091-1.140858,1.711109-1.959991,2.969088-1.521144,2.32528-4.109946,3.6711-6.801051,3.6711-.658091,0-1.316361-.087841-1.974452-.248882-1.447944-.365646-2.691283-.658091-3.451676-.848056-.087662-.01464-.190143-.02928-.277984-.02928-1.637908,0-2.749486,2.793407-1.360103,3.802504.658091.424206,1.711109,1.140858,2.954448,1.959991,2.895887,1.90143,4.270631,5.411489,3.437036,8.775503Z"/>
        <path class="cls-3" d="M53.186304,40.102562h.131404c.789852,0,2.003911.014283,3.422575.014283,3.451676.014997,6.537707,2.193876,7.678565,5.455409.482588,1.419021.921435,2.618082,1.184779,3.349374.277805.702012.994457,1.009454,1.755029,1.009454,1.082298,0,2.252436-.628811,2.296178-1.696826,0-.775212.01464-2.062115.01464-3.553979,0-3.451498,2.193876-6.537707,5.455588-7.678565,1.404023-.482767,2.603264-.921256,3.349196-1.184779,1.682007-.672731,1.111578-3.978185-.68755-4.051386h-.146044c-.789852,0-2.003911-.014283-3.407935-.014283-3.466317,0-6.537707-2.193876-7.678565-5.455766-.497229-1.404023-.935897-2.603442-1.184779-3.349017-.277805-.687729-1.009097-1.009454-1.769669-1.009454-1.082298,0-2.237796.643808-2.281538,1.696469,0,.789852-.01464,2.062472-.02928,3.554336,0,3.466495-2.179236,6.537707-5.440948,7.678565-1.418663.49705-2.617904.935897-3.349196,1.184779-1.682007.672731-1.126218,3.978185.68755,4.051386Z"/>
      </g>
    </g>
    <g>
      <g>
        <path class="cls-2" d="M138.786643,88.058392c-.586201-.962862-1.559539-1.842163-2.951702-2.585263-2.606217-1.381686-10.016649-5.285773-15.53266-9.922483-1.590843-1.255962-3.066822-1.863117-4.364692-1.863117-.659284,0-1.276916.156899-1.842163.460477-.135945,0-.261669.010477-.397615.020954.209284,1.078109.135945,2.219079-.209412,3.328619l-6.405662,20.441389c4.375041,1.517887,7.818651,4.427426,9.755107,8.216521,1.988585,3.914564,2.271209,8.572228.805962,13.125378-.471082,1.423338-1.078109,2.763116-1.821209,3.987903.711669,2.532878,1.276916,4.783133,1.716439,6.782451.282623-.146678.565247-.303577.858347-.481431,2.49097-1.570016,9.587475-6.03935,16.369925-8.499145,2.826106-1.120017,4.249572-2.742418,4.312434-4.657664.544293-.994293.816439-2.281686.774531-3.862435-.115247-2.94097-.439651-11.314391.816439-18.410896.439523-3.014309-.251192-5.066012-1.884071-6.081258ZM136.054702,95.123466c-3.129556,4.050765-5.683388,9.430576-6.583515,11.325123-.251192.533816-.544293.983816-.858219,1.360732-.010477,0-.020954.010477-.020954.020954-.136073.156899-.272146.303577-.40822.429046-.188458.177853-.387266.345485-.617504.502385-2.240033,1.433815-4.228618.722146-5.547442-2.208602-1.946805-4.741225-5.327681-9.63986-6.520781-11.366776-.324531-.491908-.575724-.973339-.7431-1.434071,0-.010221-.010477-.010221-.010477-.020954-.073339-.198807-.125724-.387138-.167504-.564991-.062734-.251192-.104642-.512862-.125596-.785008-.125596-2.658602,1.4862-4.029811,4.689095-3.70528,5.076361.690715,11.011069.209284,13.093947.041908.596678-.041908,1.130494-.020954,1.611924.062606.010477.010733.020954.010733.041908.010733.198807.031175.387138.08356.565119.135945.240715.073083.491908.167376.743228.282623,2.365374,1.214054,2.742162,3.307409.858092,5.913626Z"/>
        <path class="cls-2" d="M109.500624,76.241361c.031431-.114991.062734-.230238.073211-.334753.157027-.805962-.062734-1.570016-.565119-2.114309-.230366-.272146-.533816-.481431-.900255-.617632l-.272146,1.350255-.586073,2.815501-3.799445,18.222565,6.049827-19.321628Z"/>
        <path class="cls-2" d="M97.5893,67.983187l.115247,2.218824.376789,7.379128.125596,2.271464.115119,2.260732.722274,14.067286,3.349317-16.097779.565247-2.690033.565247-2.721464.554642-2.668823.429174-2.051447.240715-1.182879c.062862-.314054.073339-.628109.031431-.921209-.125724-1.046678-.889778-1.883815-1.99919-2.072401l-5.358984-.962862.052385.973339.114991,2.198125Z"/>
        <path class="cls-2" d="M69.193059,60.583104c-1.59097.083816-1.779301,1.245485-1.737521,1.936456l1.412989,26.648371c.429174-.146678.868824-.282623,1.308347-.387393.722146-.18833,1.465374-.324276,2.219079-.418569.63833-.062862,1.287393-.10477,1.946677-.10477h.219761c.701448.010733,1.40264.062862,2.103832.157155.690971.08356,1.381686.219761,2.072529.387138.450128.115247.900127.240715,1.350127.387393,1.706217.55477,3.25528,1.29787,4.647315,2.229301.764054.502385,1.475851,1.057155,2.124658,1.69574.732751.659284,1.413117,1.413117,2.009795,2.219079l.146422.041652,5.903277,1.915502-.70132-13.470608-.114991-2.198125-.10477-2.208602-.544293-10.414391-.115119-2.219079-.115119-2.208347-.020954-.523339-.115119-2.14574-.031303-.596678c-.041908-.659284-.2931-1.235008-.690971-1.653577-.429046-.470954-1.046678-.753577-1.74787-.753577-.073339,0-.157027,0-.230238.010221l-1.465374.115247-12.151912.963117-7.577936.596422ZM79.628404,63.723137c.303577-.052129.617632-.083816.931558-.10477,1.025724-.062606,1.99919.052641,2.920144.324531.868824.251448,1.685263.65954,2.438841,1.193356.879173.628109,1.674659,1.423338,2.344548,2.386456,1.318824,1.842163,2.229428,4.260049,2.585263,7.085772l.115247,2.177171c.031303.617632-.094293,1.653832-1.287521,1.706217l-7.93377.659284-4.500765.376916-.88965.073083-2.177043.178109-.39787.031431c-.648807.062862-1.214054-.251192-1.580366-.795485-.230366-.324531-.387266-.743356-.429174-1.214054-.010477-.157155-.020954-.31431-.031431-.471209l-.041908-.701192c-.156899-4.270526,1.004897-7.860559,3.098253-10.184153v-.010477c.743228-.816439,1.59097-1.486456,2.543483-1.95741.711669-.355707,1.475723-.606899,2.292163-.753577Z"/>
        <path class="cls-2" d="M114.252581,135.190315c-.083816-.606899-.188458-1.245485-.314054-1.905025-.125724-.659284-.261669-1.350255-.418697-2.061924-.59655-2.742162-1.402512-5.74625-2.260859-8.708429,1.015247-1.266439,1.831686-2.78407,2.396933-4.521463,2.281686-7.054597-.900127-13.585855-7.818651-16.056127-.157027-.062606-.314054-.115247-.470954-.167376-.51299-.167632-1.025851-.303577-1.538713-.408347-.512862-.114991-1.025724-.18833-1.528236-.240715-.198807-.020954-.387138-.041908-.575596-.052129-.261669-.010733-.523339-.020954-.785008-.020954s-.512862.010221-.774531.031175c-.586073.031431-1.161797.10477-1.716567.20954-.167376.041908-.335008.073083-.491908.114991-.659412.167632-1.29787.376916-1.915502.649063l-1.00477-.324531-4.563499-1.475979-1.433943-.470698-2.093355-.680494-.753577-.240715c-.387266-.648807-.826916-1.255962-1.339778-1.831686-1.496677-1.695485-3.537775-3.035518-6.049827-3.851702-.439523-.136201-.879173-.261669-1.308347-.366439-.711669-.156899-1.402512-.272146-2.093355-.324531-.355835-.031175-.711669-.041908-1.057155-.041908-.219761,0-.439523.010733-.659284.031431-.167632-.010477-.324531,0-.481559.031431-.586073.041908-1.161797.136201-1.716567.272146-.795485.178109-1.570016.45-2.30264.805962-.031431,0-.052385.010477-.083816.031431-.711669.335008-1.392035.7431-2.030493,1.235008-.722146.55477-1.392163,1.193356-1.988713,1.915502-1.077981,1.29787-1.946805,2.878363-2.533006,4.689095-.502385,1.538585-.722146,3.066694-.701192,4.521719-3.841225,2.982878-7.703532,6.175296-10.34118,8.907237-3.077299,3.181685-3.422656,6.007919,1.287393,10.560814,2.135263,2.061924,4.228618,3.119334,6.196377,3.119334,1.632878,0,3.181941-.722402,4.615756-2.208602,2.187648-2.271464,4.699572-5.453149,7.138413-8.760814.041908.010477.083816.031431.136073.052385,1.067504.345485,2.124658.55477,3.160859.649063.492036,1.653577,1.800383,2.993355,3.726234,3.610987.659412.219761,1.318824.324276,1.946933.324276,1.821209,0,3.412179-.879046,4.406472-2.417631l1.29787.418569c-.125724,2.470272,1.350255,4.595058,3.935518,5.432451.669761.209284,1.318824.313799,1.946805.313799,1.130366,0,2.166566-.334753,3.035391-.962862.052257-.031431.104642-.062862.156899-.10477.785008.460477,1.653832.868824,2.574786,1.193356,0,.156899,0,.324531.010477.481431.031431,3.945995.209412,7.808174.638586,10.812262.55477,3.862179,3.024786,5.756727,7.065074,5.756727.701192,0,1.444292-.052385,2.229301-.167632,6.40579-.910477,7.829256-3.359794,7.264009-7.640542-.010349-.052385-.010349-.10477-.020826-.157155ZM74.845015,103.528318c-.020954.345485-.04178.7431-.073211,1.140971-.020826.313799-.052257.63833-.083688.952385-.020954.18833-.031431.355962-.052385.533816-.031431.198807-.062862.397615-.094165.586201-.031431.240715-.073211.460477-.125596.669761-.094293.387393-.230238.65954-.502385.805962-.261669.146422-.638586.157155-1.203705.020954-.942035-.219761-1.371081-.732623-1.182751-1.528108.052385-.209284.115119-.439778.18833-.690715l.062862-.188586c.052385-.146422.104642-.303577.157027-.460477v-.010477c.157027-.429046.324404-.879301.491908-1.308347.052257-.125468.104642-.240715.157027-.366184.062862-.167632.136073-.324531.198807-.481686-.209284,0-.460477.010477-.722146.010477-.251192.010477-.523339.010477-.805962.010477-.439523,0-.900127,0-1.350255-.020954-.135945,0-.261669-.010477-.397615-.010477-.010477,0-.020954,0-.031431-.010221-.2931-.010733-.575724-.031687-.837393-.052641-.136073-.020698-.261669-.031175-.376789-.052129-.774531-.115247-1.130366-.481431-.952512-1.632878.041908-.282623.115247-.533816.219761-.722146.10477-.20954.251192-.366439.429174-.460477.219889-.125724.471082-.167632.785008-.115247.261669.041908.55477.094293.868696.167376v.010477c.136201.031431.282623.062862.439651.10477.209412.052385.418697.115247.627981.177853.575724.167376,1.151448.355962,1.653832.523339.115119.041908.230238.073339.334881.115247.219889.073083.429174.135945.59655.198807.052385-.889778.136201-2.04097.272146-2.993355.052385-.324531.10477-.628109.167632-.889778.062734-.2931.167376-.523339.324404-.680238.261669-.251448.680366-.314054,1.381558-.146678.303577.073339.55477.177853.753577.324531.39787.261669.544293.669761.429174,1.203577-.198935.868824-.669889,2.072401-1.077981,3.098125-.062862.136201-.125724.272146-.177981.408347,1.172274-.020954,3.244675-.073339,4.521591.125468.659412.094293,1.015247.376916.994293,1.172402,0,.135945-.010477.282623-.04178.460477-.010477.041908-.010477.083816-.020954.115247,0,.020954-.010477.041908-.010477.052129-.020826.10477-.052257.199063-.073211.282623,0,.010477-.010477.020954-.010477.031431-.041908.10477-.083816.199063-.125596.282623-.010477.031431-.031431.052385-.052385.083816-.052257.08356-.115119.156899-.188458.219761h-.010477c-.031303.031431-.062734.062862-.104514.083816-.031431.031431-.073339.052385-.10477.062606-.052385.020954-.104642.041908-.156899.052385-.041908.010477-.094293.020954-.146678.031431-.135945.031431-.272146.020954-.429046,0-1.329301-.198807-3.464564-.941908-4.532196-1.29787ZM82.663794,117.899181c-.607027,1.863117-2.334198,2.752895-4.207664,2.135263-1.873466-.607155-2.773721-2.344548-2.166566-4.207664.607027-1.873594,2.344548-2.752895,4.218141-2.14574,1.883943.607155,2.763116,2.344548,2.156089,4.218141ZM93.915579,121.541598c-.083688.251192-.188458.481686-.314054.690715-.40822.732879-1.046678,1.21431-1.800255,1.40264-.565119.157155-1.203705.136201-1.85264-.073339-1.350127-.439523-2.166566-1.507154-2.218951-2.763116-.020954-.387138.031431-.795485.167504-1.214054.136073-.429301.345358-.795485.617504-1.10954.45-.586201,1.099063-.95264,1.831686-1.046678.481431-.083816,1.00477-.041908,1.538585.135945,1.276916.408347,2.061924,1.360732,2.177171,2.533134.062734.45.020954.941908-.14655,1.444292ZM98.646454,110.896969v.010477c-.429046.198807-.941908.230238-1.465246.052385-.324531-.10477-.596678-.261669-.816439-.470954h-.010477c-.523339-.492163-.711669-1.245741-.460477-2.030749,0-.010477.010477-.020954.010477-.031431.376661-1.088586,1.392035-1.611924,2.501447-1.245485.010477,0,.031431.010477.041908.020954.491908.167632.868824.470954,1.088586.858347l.251192.805962c.031431.261669,0,.544037-.094293.826661-.198807.575724-.565119.994548-1.046678,1.203833ZM103.189127,116.727035c-.355962,1.10954-1.392163,1.632878-2.512052,1.276916-.774531-.261669-1.266439-.826916-1.371081-1.528364-.041908-.303322-.010477-.63833.094165-.973339.345358-1.099063,1.33965-1.622401,2.428236-1.308347.020954.010477.052385.010477.073339.020954,1.119889.366439,1.653705,1.40264,1.287393,2.51218ZM104.277713,109.641007c-.282623-.094293-.533816-.230494-.732751-.39787v-.010477c-.59655-.481431-.816311-1.266439-.554642-2.093355.272146-.816184.889523-1.318824,1.653705-1.38143.272019-.031431.565119.010221.858219.104514,1.10954.355962,1.643355,1.392163,1.287393,2.501447-.366312,1.10954-1.402512,1.632878-2.511924,1.277172ZM110.275155,114.842964c-.355962,1.109284-1.392163,1.632623-2.512052,1.276916-1.119889-.366439-1.643228-1.392163-1.277044-2.501703.355962-1.119761,1.381686-1.6431,2.501703-1.287393,1.119889.366439,1.643228,1.392163,1.287393,2.51218Z"/>
      </g>
      <g>
        <path class="cls-3" d="M138.786643,88.058392c-.586201-.962862-1.559539-1.842163-2.951702-2.585263-2.606217-1.381686-10.016649-5.285773-15.53266-9.922483-1.590843-1.255962-3.066822-1.863117-4.364692-1.863117-.659284,0-1.276916.156899-1.842163.460477-.135945,0-.261669.010477-.397615.020954.209284,1.078109.135945,2.219079-.209412,3.328619l-6.405662,20.441389c4.375041,1.517887,7.818651,4.427426,9.755107,8.216521,1.988585,3.914564,2.271209,8.572228.805962,13.125378-.471082,1.423338-1.078109,2.763116-1.821209,3.987903.711669,2.532878,1.276916,4.783133,1.716439,6.782451.282623-.146678.565247-.303577.858347-.481431,2.49097-1.570016,9.587475-6.03935,16.369925-8.499145,2.826106-1.120017,4.249572-2.742418,4.312434-4.657664.544293-.994293.816439-2.281686.774531-3.862435-.115247-2.94097-.439651-11.314391.816439-18.410896.439523-3.014309-.251192-5.066012-1.884071-6.081258ZM136.054702,95.123466c-3.129556,4.050765-5.683388,9.430576-6.583515,11.325123-.251192.533816-.544293.983816-.858219,1.360732-.010477,0-.020954.010477-.020954.020954-.136073.156899-.272146.303577-.40822.429046-.188458.177853-.387266.345485-.617504.502385-2.240033,1.433815-4.228618.722146-5.547442-2.208602-1.946805-4.741225-5.327681-9.63986-6.520781-11.366776-.324531-.491908-.575724-.973339-.7431-1.434071,0-.010221-.010477-.010221-.010477-.020954-.073339-.198807-.125724-.387138-.167504-.564991-.062734-.251192-.104642-.512862-.125596-.785008-.125596-2.658602,1.4862-4.029811,4.689095-3.70528,5.076361.690715,11.011069.209284,13.093947.041908.596678-.041908,1.130494-.020954,1.611924.062606.010477.010733.020954.010733.041908.010733.198807.031175.387138.08356.565119.135945.240715.073083.491908.167376.743228.282623,2.365374,1.214054,2.742162,3.307409.858092,5.913626Z"/>
        <path class="cls-3" d="M109.500624,76.241361c.031431-.114991.062734-.230238.073211-.334753.157027-.805962-.062734-1.570016-.565119-2.114309-.230366-.272146-.533816-.481431-.900255-.617632l-.272146,1.350255-.586073,2.815501-3.799445,18.222565,6.049827-19.321628Z"/>
        <path class="cls-3" d="M97.5893,67.983187l.115247,2.218824.376789,7.379128.125596,2.271464.115119,2.260732.722274,14.067286,3.349317-16.097779.565247-2.690033.565247-2.721464.554642-2.668823.429174-2.051447.240715-1.182879c.062862-.314054.073339-.628109.031431-.921209-.125724-1.046678-.889778-1.883815-1.99919-2.072401l-5.358984-.962862.052385.973339.114991,2.198125Z"/>
        <path class="cls-3" d="M69.193059,60.583104c-1.59097.083816-1.779301,1.245485-1.737521,1.936456l1.412989,26.648371c.429174-.146678.868824-.282623,1.308347-.387393.722146-.18833,1.465374-.324276,2.219079-.418569.63833-.062862,1.287393-.10477,1.946677-.10477h.219761c.701448.010733,1.40264.062862,2.103832.157155.690971.08356,1.381686.219761,2.072529.387138.450128.115247.900127.240715,1.350127.387393,1.706217.55477,3.25528,1.29787,4.647315,2.229301.764054.502385,1.475851,1.057155,2.124658,1.69574.732751.659284,1.413117,1.413117,2.009795,2.219079l.146422.041652,5.903277,1.915502-.70132-13.470608-.114991-2.198125-.10477-2.208602-.544293-10.414391-.115119-2.219079-.115119-2.208347-.020954-.523339-.115119-2.14574-.031303-.596678c-.041908-.659284-.2931-1.235008-.690971-1.653577-.429046-.470954-1.046678-.753577-1.74787-.753577-.073339,0-.157027,0-.230238.010221l-1.465374.115247-12.151912.963117-7.577936.596422ZM79.628404,63.723137c.303577-.052129.617632-.083816.931558-.10477,1.025724-.062606,1.99919.052641,2.920144.324531.868824.251448,1.685263.65954,2.438841,1.193356.879173.628109,1.674659,1.423338,2.344548,2.386456,1.318824,1.842163,2.229428,4.260049,2.585263,7.085772l.115247,2.177171c.031303.617632-.094293,1.653832-1.287521,1.706217l-7.93377.659284-4.500765.376916-.88965.073083-2.177043.178109-.39787.031431c-.648807.062862-1.214054-.251192-1.580366-.795485-.230366-.324531-.387266-.743356-.429174-1.214054-.010477-.157155-.020954-.31431-.031431-.471209l-.041908-.701192c-.156899-4.270526,1.004897-7.860559,3.098253-10.184153v-.010477c.743228-.816439,1.59097-1.486456,2.543483-1.95741.711669-.355707,1.475723-.606899,2.292163-.753577Z"/>
        <path class="cls-3" d="M114.252581,135.190315c-.083816-.606899-.188458-1.245485-.314054-1.905025-.125724-.659284-.261669-1.350255-.418697-2.061924-.59655-2.742162-1.402512-5.74625-2.260859-8.708429,1.015247-1.266439,1.831686-2.78407,2.396933-4.521463,2.281686-7.054597-.900127-13.585855-7.818651-16.056127-.157027-.062606-.314054-.115247-.470954-.167376-.51299-.167632-1.025851-.303577-1.538713-.408347-.512862-.114991-1.025724-.18833-1.528236-.240715-.198807-.020954-.387138-.041908-.575596-.052129-.261669-.010733-.523339-.020954-.785008-.020954s-.512862.010221-.774531.031175c-.586073.031431-1.161797.10477-1.716567.20954-.167376.041908-.335008.073083-.491908.114991-.659412.167632-1.29787.376916-1.915502.649063l-1.00477-.324531-4.563499-1.475979-1.433943-.470698-2.093355-.680494-.753577-.240715c-.387266-.648807-.826916-1.255962-1.339778-1.831686-1.496677-1.695485-3.537775-3.035518-6.049827-3.851702-.439523-.136201-.879173-.261669-1.308347-.366439-.711669-.156899-1.402512-.272146-2.093355-.324531-.355835-.031175-.711669-.041908-1.057155-.041908-.219761,0-.439523.010733-.659284.031431-.167632-.010477-.324531,0-.481559.031431-.586073.041908-1.161797.136201-1.716567.272146-.795485.178109-1.570016.45-2.30264.805962-.031431,0-.052385.010477-.083816.031431-.711669.335008-1.392035.7431-2.030493,1.235008-.722146.55477-1.392163,1.193356-1.988713,1.915502-1.077981,1.29787-1.946805,2.878363-2.533006,4.689095-.502385,1.538585-.722146,3.066694-.701192,4.521719-3.841225,2.982878-7.703532,6.175296-10.34118,8.907237-3.077299,3.181685-3.422656,6.007919,1.287393,10.560814,2.135263,2.061924,4.228618,3.119334,6.196377,3.119334,1.632878,0,3.181941-.722402,4.615756-2.208602,2.187648-2.271464,4.699572-5.453149,7.138413-8.760814.041908.010477.083816.031431.136073.052385,1.067504.345485,2.124658.55477,3.160859.649063.492036,1.653577,1.800383,2.993355,3.726234,3.610987.659412.219761,1.318824.324276,1.946933.324276,1.821209,0,3.412179-.879046,4.406472-2.417631l1.29787.418569c-.125724,2.470272,1.350255,4.595058,3.935518,5.432451.669761.209284,1.318824.313799,1.946805.313799,1.130366,0,2.166566-.334753,3.035391-.962862.052257-.031431.104642-.062862.156899-.10477.785008.460477,1.653832.868824,2.574786,1.193356,0,.156899,0,.324531.010477.481431.031431,3.945995.209412,7.808174.638586,10.812262.55477,3.862179,3.024786,5.756727,7.065074,5.756727.701192,0,1.444292-.052385,2.229301-.167632,6.40579-.910477,7.829256-3.359794,7.264009-7.640542-.010349-.052385-.010349-.10477-.020826-.157155ZM74.845015,103.528318c-.020954.345485-.04178.7431-.073211,1.140971-.020826.313799-.052257.63833-.083688.952385-.020954.18833-.031431.355962-.052385.533816-.031431.198807-.062862.397615-.094165.586201-.031431.240715-.073211.460477-.125596.669761-.094293.387393-.230238.65954-.502385.805962-.261669.146422-.638586.157155-1.203705.020954-.942035-.219761-1.371081-.732623-1.182751-1.528108.052385-.209284.115119-.439778.18833-.690715l.062862-.188586c.052385-.146422.104642-.303577.157027-.460477v-.010477c.157027-.429046.324404-.879301.491908-1.308347.052257-.125468.104642-.240715.157027-.366184.062862-.167632.136073-.324531.198807-.481686-.209284,0-.460477.010477-.722146.010477-.251192.010477-.523339.010477-.805962.010477-.439523,0-.900127,0-1.350255-.020954-.135945,0-.261669-.010477-.397615-.010477-.010477,0-.020954,0-.031431-.010221-.2931-.010733-.575724-.031687-.837393-.052641-.136073-.020698-.261669-.031175-.376789-.052129-.774531-.115247-1.130366-.481431-.952512-1.632878.041908-.282623.115247-.533816.219761-.722146.10477-.20954.251192-.366439.429174-.460477.219889-.125724.471082-.167632.785008-.115247.261669.041908.55477.094293.868696.167376v.010477c.136201.031431.282623.062862.439651.10477.209412.052385.418697.115247.627981.177853.575724.167376,1.151448.355962,1.653832.523339.115119.041908.230238.073339.334881.115247.219889.073083.429174.135945.59655.198807.052385-.889778.136201-2.04097.272146-2.993355.052385-.324531.10477-.628109.167632-.889778.062734-.2931.167376-.523339.324404-.680238.261669-.251448.680366-.314054,1.381558-.146678.303577.073339.55477.177853.753577.324531.39787.261669.544293.669761.429174,1.203577-.198935.868824-.669889,2.072401-1.077981,3.098125-.062862.136201-.125724.272146-.177981.408347,1.172274-.020954,3.244675-.073339,4.521591.125468.659412.094293,1.015247.376916.994293,1.172402,0,.135945-.010477.282623-.04178.460477-.010477.041908-.010477.083816-.020954.115247,0,.020954-.010477.041908-.010477.052129-.020826.10477-.052257.199063-.073211.282623,0,.010477-.010477.020954-.010477.031431-.041908.10477-.083816.199063-.125596.282623-.010477.031431-.031431.052385-.052385.083816-.052257.08356-.115119.156899-.188458.219761h-.010477c-.031303.031431-.062734.062862-.104514.083816-.031431.031431-.073339.052385-.10477.062606-.052385.020954-.104642.041908-.156899.052385-.041908.010477-.094293.020954-.146678.031431-.135945.031431-.272146.020954-.429046,0-1.329301-.198807-3.464564-.941908-4.532196-1.29787ZM82.663794,117.899181c-.607027,1.863117-2.334198,2.752895-4.207664,2.135263-1.873466-.607155-2.773721-2.344548-2.166566-4.207664.607027-1.873594,2.344548-2.752895,4.218141-2.14574,1.883943.607155,2.763116,2.344548,2.156089,4.218141ZM93.915579,121.541598c-.083688.251192-.188458.481686-.314054.690715-.40822.732879-1.046678,1.21431-1.800255,1.40264-.565119.157155-1.203705.136201-1.85264-.073339-1.350127-.439523-2.166566-1.507154-2.218951-2.763116-.020954-.387138.031431-.795485.167504-1.214054.136073-.429301.345358-.795485.617504-1.10954.45-.586201,1.099063-.95264,1.831686-1.046678.481431-.083816,1.00477-.041908,1.538585.135945,1.276916.408347,2.061924,1.360732,2.177171,2.533134.062734.45.020954.941908-.14655,1.444292ZM98.646454,110.896969v.010477c-.429046.198807-.941908.230238-1.465246.052385-.324531-.10477-.596678-.261669-.816439-.470954h-.010477c-.523339-.492163-.711669-1.245741-.460477-2.030749,0-.010477.010477-.020954.010477-.031431.376661-1.088586,1.392035-1.611924,2.501447-1.245485.010477,0,.031431.010477.041908.020954.491908.167632.868824.470954,1.088586.858347l.251192.805962c.031431.261669,0,.544037-.094293.826661-.198807.575724-.565119.994548-1.046678,1.203833ZM103.189127,116.727035c-.355962,1.10954-1.392163,1.632878-2.512052,1.276916-.774531-.261669-1.266439-.826916-1.371081-1.528364-.041908-.303322-.010477-.63833.094165-.973339.345358-1.099063,1.33965-1.622401,2.428236-1.308347.020954.010477.052385.010477.073339.020954,1.119889.366439,1.653705,1.40264,1.287393,2.51218ZM104.277713,109.641007c-.282623-.094293-.533816-.230494-.732751-.39787v-.010477c-.59655-.481431-.816311-1.266439-.554642-2.093355.272146-.816184.889523-1.318824,1.653705-1.38143.272019-.031431.565119.010221.858219.104514,1.10954.355962,1.643355,1.392163,1.287393,2.501447-.366312,1.10954-1.402512,1.632878-2.511924,1.277172ZM110.275155,114.842964c-.355962,1.109284-1.392163,1.632623-2.512052,1.276916-1.119889-.366439-1.643228-1.392163-1.277044-2.501703.355962-1.119761,1.381686-1.6431,2.501703-1.287393,1.119889.366439,1.643228,1.392163,1.287393,2.51218Z"/>
      </g>
    </g>
  </g>
</svg>